<svg width="175" height="24" viewBox="0 0 175 24" fill="none" xmlns="http://www.w3.org/2000/svg">
<path d="M139.855 0.00435029H144.427C144.866 0.00435029 145.223 0.361066 145.223 0.800435V23.1996C145.223 23.6389 144.866 23.9956 144.427 23.9956H139.855C139.415 23.9956 139.059 23.6389 139.059 23.1996V0.796085C139.059 0.356716 139.415 0 139.855 0V0.00435029Z" fill="#142736" style="fill:#142736;fill:color(display-p3 0.0784 0.1529 0.2118);fill-opacity:1;"/>
<path d="M16.627 0.504622C16.5095 0.200109 16.218 0 15.8918 0H9.6536C9.33168 0 9.04022 0.200109 8.92277 0.500272L0.0440273 23.143C-0.11693 23.5519 0.183233 23.9913 0.622603 23.9913H5.2077C5.61227 23.9913 5.96899 23.739 6.10384 23.3605L7.53506 19.3279H17.4317L18.7933 23.3475C18.9239 23.7346 19.2849 23.9956 19.6938 23.9956H24.7879C25.2229 23.9956 25.5231 23.5563 25.3665 23.1517L16.627 0.508972V0.504622ZM12.4334 5.14193H12.7553L16.2006 15.2779H8.83576L12.4377 5.14193H12.4334Z" fill="#142736" style="fill:#142736;fill:color(display-p3 0.0784 0.1529 0.2118);fill-opacity:1;"/>
<path d="M102.578 0.474175C102.452 0.187062 102.169 0.00435444 101.86 0.00435444H95.0001C94.6912 0.00435444 94.4128 0.187062 94.2823 0.465474L84.0332 23.1169C83.8462 23.5258 84.1463 23.9913 84.5988 23.9913H89.1751C89.558 23.9913 89.9016 23.7607 90.0495 23.4084L91.7766 19.3235H104.379L106.01 23.391C106.154 23.752 106.506 23.9869 106.893 23.9869H111.975C112.423 23.9869 112.723 23.5258 112.544 23.1169L102.574 0.469825L102.578 0.474175ZM93.4905 15.2779L98.08 4.4198H98.4019L102.761 15.2779H93.4905Z" fill="#142736" style="fill:#142736;fill:color(display-p3 0.0784 0.1529 0.2118);fill-opacity:1;"/>
<path d="M173.225 0.00435444H168.862C168.427 0.00435444 168.074 0.35672 168.074 0.791739V15.987H167.753L158.448 0.469825C158.274 0.182712 157.965 0.00870473 157.63 0.00870473H152.205C151.77 0.00870473 151.418 0.36107 151.418 0.796089V23.2126C151.418 23.6476 151.77 24 152.205 24H156.712C157.147 24 157.499 23.6476 157.499 23.2126V8.12616H157.821L167.061 23.5389C167.231 23.826 167.544 24 167.879 24H173.225C173.66 24 174.013 23.6476 174.013 23.2126V0.791739C174.013 0.35672 173.66 0.00435444 173.225 0.00435444Z" fill="#142736" style="fill:#142736;fill:color(display-p3 0.0784 0.1529 0.2118);fill-opacity:1;"/>
<path d="M133.978 18.8189H122.48V0.787384C122.48 0.352365 122.128 0 121.693 0H117.108C116.673 0 116.32 0.352365 116.32 0.787384V23.2039C116.32 23.6389 116.673 23.9913 117.108 23.9913H133.064C133.53 23.9913 133.93 23.652 134.004 23.1909L134.587 19.5367C134.648 19.1582 134.356 18.8189 133.973 18.8189H133.978Z" fill="#142736" style="fill:#142736;fill:color(display-p3 0.0784 0.1529 0.2118);fill-opacity:1;"/>
<path d="M45.2338 10.9711C48.566 10.9711 50.5758 8.9831 50.5758 5.65955C50.5758 2.64922 48.5095 0.00865577 44.3333 0.00865577H29.795C29.3599 0.00865577 29.0076 0.356671 29.0076 0.79169V23.2082C29.0076 23.6432 29.3599 23.9956 29.795 23.9956H42.976C48.5051 23.9956 52.3159 22.6427 52.3159 17.0571C52.3159 13.0984 48.566 11.2104 45.2338 11.2104V10.9711ZM35.1326 4.05433H42.7585C44.2332 4.05433 45.1816 5.05923 45.1816 6.53394C45.1816 8.00865 44.2332 9.01355 42.7585 9.01355H35.1239L35.1326 4.05433ZM42.6846 19.7498H35.1109L35.1196 12.9809H42.541C44.6378 12.9983 46.0647 14.2077 46.0647 16.3436C46.0647 18.4796 44.7814 19.7368 42.6846 19.7498Z" fill="#142736" style="fill:#142736;fill:color(display-p3 0.0784 0.1529 0.2118);fill-opacity:1;"/>
<path d="M81.3229 22.9821L80.3441 19.6585C79.5263 16.8961 78.765 15.2083 77.2555 14.1773C76.0853 13.3768 74.6062 13.1637 73.4577 13.1637V12.9679C77.2381 12.9679 80.3136 10.6536 80.3136 6.8733C80.3136 1.33551 76.5768 0 71.0608 0H57.6753C57.2402 0 56.8879 0.352365 56.8879 0.783034V23.1996C56.8879 23.6346 57.2402 23.9869 57.6753 23.9869H62.1995C62.6345 23.9869 62.9868 23.6346 62.9868 23.2039L62.9955 15.0299H68.6421C72.1831 15.0299 73.0575 15.6563 74.0624 19.4366L75.0238 23.2692C75.1282 23.6911 75.511 23.9913 75.9461 23.9913H80.5703C81.0967 23.9913 81.4708 23.4867 81.3229 22.9821ZM71.0042 10.8233H62.9999L63.0086 4.5503H71.1347C73.0575 4.56335 74.2277 5.74225 74.2277 7.67374C74.2277 9.60522 72.927 10.8102 71.0042 10.8233Z" fill="#142736" style="fill:#142736;fill:color(display-p3 0.0784 0.1529 0.2118);fill-opacity:1;"/>
</svg>
